<?xml version="1.0" standalone="no"?>
<!DOCTYPE svg PUBLIC "-//W3C//DTD SVG 20010904//EN"
 "http://www.w3.org/TR/2001/REC-SVG-20010904/DTD/svg10.dtd">
<svg version="1.0" xmlns="http://www.w3.org/2000/svg"
 width="384.000000pt" height="384.000000pt" viewBox="0 0 384.000000 384.000000"
 preserveAspectRatio="xMidYMid meet">
<metadata>
Created by potrace 1.14, written by Peter Selinger 2001-2017
</metadata>
<g transform="translate(0.000000,384.000000) scale(0.100000,-0.100000)"
fill="#000000" stroke="none">
<path d="M3280 3611 c-75 -24 -107 -42 -162 -90 -134 -119 -190 -308 -143
-485 65 -245 311 -394 537 -325 316 95 431 497 218 759 -106 130 -299 191
-450 141z"/>
<path d="M1290 3330 c-109 -18 -212 -44 -242 -60 -10 -6 -22 -10 -28 -10 -15
0 -105 -40 -192 -85 -161 -83 -368 -253 -474 -390 -21 -27 -41 -52 -44 -55
-22 -19 -101 -153 -146 -245 -78 -162 -131 -336 -152 -500 -17 -143 -5 -443
22 -533 3 -9 7 -30 10 -45 6 -36 33 -130 48 -165 6 -15 12 -33 14 -41 4 -23
83 -182 121 -246 238 -395 674 -684 1108 -732 91 -10 303 -10 380 0 325 43
637 200 878 442 49 49 167 193 167 203 0 5 10 19 22 32 51 55 190 366 212 476
3 10 9 39 15 64 17 75 21 102 28 180 12 145 5 347 -17 444 -5 23 -11 55 -14
71 -9 51 -42 157 -71 230 -208 522 -651 881 -1200 971 -86 14 -345 10 -445 -6z"/>
</g>
</svg>
