<svg width="144" height="96" viewBox="0 0 144 96" fill="none" xmlns="http://www.w3.org/2000/svg">
<g filter="url(#filter0_d)">
<path d="M54.24 33.056L50.112 12.128C53.248 9.312 56.96 7.968 61.248 8.096C65.6 8.224 68.992 9.408 71.424 11.648C72.064 19.264 70.176 26.656 65.76 33.824C63.712 37.216 60.544 42.304 56.256 49.088C52.032 55.872 48.672 61.408 46.176 65.696L40.608 79.136C37.024 80.224 33.28 80.352 29.376 79.52C25.472 78.624 22.432 76.896 20.256 74.336L9.12 14.432C11.04 12.256 13.472 10.592 16.416 9.44C19.36 8.288 22.144 7.776 24.768 7.904C27.392 7.96799 29.376 8.54399 30.72 9.632L30.912 48.032L34.56 69.92L54.24 33.056ZM109.559 58.976C109.559 57.696 108.439 56.352 106.199 54.944C104.023 53.536 101.303 52.032 98.0393 50.432C94.7753 48.832 91.4793 47.072 88.1513 45.152C84.8873 43.232 81.9433 40.8 79.3193 37.856C76.6953 34.848 75.1273 31.584 74.6153 28.064C77.3673 22.24 81.6553 17.504 87.4793 13.856C93.3033 10.144 99.8633 7.904 107.159 7.13599C112.343 7.776 116.919 9.344 120.887 11.84C124.855 14.336 127.895 17.472 130.007 21.248C128.343 28.48 122.647 31.136 112.919 29.216C112.023 23.584 109.975 19.072 106.775 15.68C103.447 16.64 100.215 18.208 97.0793 20.384C94.0073 22.496 92.5033 24.384 92.5673 26.048C92.5673 27.264 93.6553 28.672 95.8313 30.272C98.0073 31.808 100.695 33.44 103.895 35.168C107.159 36.896 110.455 38.752 113.783 40.736C117.175 42.656 120.279 44.96 123.095 47.648C125.911 50.272 127.767 52.928 128.663 55.616C127.639 62.336 124.087 67.84 118.007 72.128C111.991 76.416 104.311 79.04 94.9673 80C89.0793 78.912 83.6393 76.864 78.6473 73.856C73.7193 70.784 70.3593 67.392 68.5673 63.68C70.6153 59.712 73.0153 56.832 75.7673 55.04C78.5833 53.248 82.1673 53.024 86.5193 54.368C87.2233 57.824 88.2793 60.832 89.6873 63.392C91.0953 65.952 93.1113 68.64 95.7353 71.456C99.6393 70.624 102.903 69.056 105.527 66.752C108.215 64.448 109.559 61.856 109.559 58.976Z" fill="#F2994A"/>
<path d="M54.24 33.056L55.1222 33.5269L55.2901 33.2124L55.2211 32.8625L54.24 33.056ZM50.112 12.128L49.4439 11.3839L49.0209 11.7638L49.1309 12.3215L50.112 12.128ZM61.248 8.096L61.2182 9.09555L61.2186 9.09557L61.248 8.096ZM71.424 11.648L72.4205 11.5643L72.3879 11.1762L72.1015 10.9125L71.424 11.648ZM65.76 33.824L64.9086 33.2995L64.9039 33.3071L65.76 33.824ZM56.256 49.088L55.4107 48.5537L55.4071 48.5594L56.256 49.088ZM46.176 65.696L45.3118 65.1929L45.2779 65.2511L45.2521 65.3133L46.176 65.696ZM40.608 79.136L40.8985 80.0929L41.3509 79.9555L41.5319 79.5187L40.608 79.136ZM29.376 79.52L29.1523 80.4947L29.1599 80.4964L29.1676 80.498L29.376 79.52ZM20.256 74.336L19.2728 74.5188L19.3215 74.7807L19.4941 74.9836L20.256 74.336ZM9.12 14.432L8.37016 13.7704L8.04779 14.1357L8.13684 14.6148L9.12 14.432ZM24.768 7.904L24.7193 8.90281L24.7314 8.9034L24.7436 8.9037L24.768 7.904ZM30.72 9.632L31.72 9.627L31.7176 9.153L31.3492 8.85475L30.72 9.632ZM30.912 48.032L29.912 48.037L29.9124 48.1172L29.9256 48.1964L30.912 48.032ZM34.56 69.92L33.5736 70.0844L34.0571 72.9854L35.4422 70.3909L34.56 69.92ZM55.2211 32.8625L51.0931 11.9345L49.1309 12.3215L53.2589 33.2495L55.2211 32.8625ZM50.7801 12.872C53.7212 10.2311 57.1819 8.97507 61.2182 9.09555L61.2778 7.09644C56.7381 6.96093 52.7748 8.39289 49.4439 11.3839L50.7801 12.872ZM61.2186 9.09557C65.4074 9.21876 68.5415 10.3526 70.7465 12.3835L72.1015 10.9125C69.4426 8.46344 65.7926 7.22923 61.2774 7.09643L61.2186 9.09557ZM70.4275 11.7317C71.0478 19.113 69.2245 26.294 64.9086 33.2995L66.6114 34.3485C71.1275 27.018 73.0802 19.415 72.4205 11.5643L70.4275 11.7317ZM64.9039 33.3071C62.8615 36.69 59.6979 41.7709 55.4107 48.5537L57.1013 49.6223C61.3901 42.8371 64.5626 37.742 66.6161 34.3409L64.9039 33.3071ZM55.4071 48.5594C51.1806 55.3475 47.8148 60.8928 45.3118 65.1929L47.0402 66.1991C49.5292 61.9232 52.8834 56.3965 57.1049 49.6166L55.4071 48.5594ZM45.2521 65.3133L39.6841 78.7533L41.5319 79.5187L47.0999 66.0787L45.2521 65.3133ZM40.3175 78.1791C36.906 79.2148 33.3342 79.3411 29.5844 78.542L29.1676 80.498C33.2258 81.3629 37.142 81.2332 40.8985 80.0929L40.3175 78.1791ZM29.5997 78.5453C25.8641 77.688 23.0291 76.0545 21.0179 73.6884L19.4941 74.9836C21.8349 77.7375 25.0799 79.56 29.1523 80.4947L29.5997 78.5453ZM21.2392 74.1532L10.1032 14.2492L8.13684 14.6148L19.2728 74.5188L21.2392 74.1532ZM9.86984 15.0936C11.6754 13.0473 13.971 11.4706 16.7804 10.3712L16.0516 8.50876C12.973 9.71342 10.4046 11.4647 8.37016 13.7704L9.86984 15.0936ZM16.7804 10.3712C19.6192 9.26039 22.2619 8.78294 24.7193 8.90281L24.8167 6.90518C22.0261 6.76906 19.1008 7.31561 16.0516 8.50876L16.7804 10.3712ZM24.7436 8.9037C27.2554 8.96496 28.9869 9.51564 30.0908 10.4092L31.3492 8.85475C29.7651 7.57235 27.5286 6.97103 24.7924 6.90429L24.7436 8.9037ZM29.72 9.637L29.912 48.037L31.912 48.027L31.72 9.627L29.72 9.637ZM29.9256 48.1964L33.5736 70.0844L35.5464 69.7556L31.8984 47.8676L29.9256 48.1964ZM35.4422 70.3909L55.1222 33.5269L53.3578 32.5851L33.6778 69.4491L35.4422 70.3909ZM106.199 54.944L105.656 55.7836L105.667 55.7906L106.199 54.944ZM98.0393 50.432L98.4794 49.5341L98.4794 49.5341L98.0393 50.432ZM88.1513 45.152L87.6442 46.014L87.6515 46.0182L88.1513 45.152ZM79.3193 37.856L78.5656 38.5134L78.5727 38.5214L79.3193 37.856ZM74.6153 28.064L73.7111 27.6368L73.5822 27.9095L73.6257 28.2079L74.6153 28.064ZM87.4793 13.856L88.0101 14.7035L88.0167 14.6993L87.4793 13.856ZM107.159 7.13599L107.282 6.14353L107.168 6.12952L107.055 6.14149L107.159 7.13599ZM120.887 11.84L121.42 10.9935L121.42 10.9935L120.887 11.84ZM130.007 21.248L130.982 21.4722L131.068 21.0964L130.88 20.7598L130.007 21.248ZM112.919 29.216L111.932 29.3731L112.041 30.062L112.726 30.1971L112.919 29.216ZM106.775 15.68L107.503 14.9938L107.084 14.5501L106.498 14.7192L106.775 15.68ZM97.0793 20.384L97.6458 21.208L97.6493 21.2056L97.0793 20.384ZM92.5673 26.048H93.5673V26.0288L93.5665 26.0096L92.5673 26.048ZM95.8313 30.272L95.2389 31.0777L95.2467 31.0834L95.2546 31.089L95.8313 30.272ZM103.895 35.168L103.42 36.0479L103.427 36.0518L103.895 35.168ZM113.783 40.736L113.271 41.5949L113.281 41.6007L113.291 41.6063L113.783 40.736ZM123.095 47.648L122.405 48.3714L122.414 48.3796L123.095 47.648ZM128.663 55.616L129.652 55.7666L129.688 55.5284L129.612 55.2998L128.663 55.616ZM118.007 72.128L117.431 71.3108L117.427 71.3137L118.007 72.128ZM94.9673 80L94.7855 80.9834L94.9267 81.0094L95.0695 80.9948L94.9673 80ZM78.6473 73.856L78.1182 74.7046L78.1247 74.7086L78.1311 74.7125L78.6473 73.856ZM68.5673 63.68L67.6786 63.2214L67.4496 63.6651L67.6667 64.1147L68.5673 63.68ZM75.7673 55.04L75.2303 54.1963L75.2216 54.202L75.7673 55.04ZM86.5193 54.368L87.4991 54.1684L87.3808 53.5875L86.8143 53.4125L86.5193 54.368ZM95.7353 71.456L95.0036 72.1377L95.3898 72.5521L95.9437 72.434L95.7353 71.456ZM105.527 66.752L104.876 65.9927L104.867 66.0006L105.527 66.752ZM110.559 58.976C110.559 58.0288 110.142 57.1538 109.487 56.3678C108.835 55.5849 107.9 54.8317 106.731 54.0974L105.667 55.7906C106.739 56.4643 107.483 57.0871 107.951 57.6482C108.416 58.2062 108.559 58.6432 108.559 58.976H110.559ZM106.743 54.1044C104.523 52.6683 101.766 51.1451 98.4794 49.5341L97.5991 51.3299C100.841 52.9189 103.523 54.4036 105.656 55.7836L106.743 54.1044ZM98.4794 49.5341C95.2367 47.9445 91.9606 46.1952 88.651 44.2858L87.6515 46.0182C90.9979 47.9488 94.3138 49.7195 97.5991 51.3299L98.4794 49.5341ZM88.6583 44.2901C85.4875 42.4249 82.6235 40.0603 80.0658 37.1906L78.5727 38.5214C81.263 41.5397 84.287 44.0391 87.6442 46.0139L88.6583 44.2901ZM80.0728 37.1986C77.5593 34.3173 76.0859 31.2271 75.6048 27.9201L73.6257 28.2079C74.1686 31.9409 75.8312 35.3787 78.5657 38.5134L80.0728 37.1986ZM75.5194 28.4912C78.1842 22.8518 82.3368 18.2571 88.0101 14.7035L86.9484 13.0085C80.9737 16.7509 76.5503 21.6282 73.7111 27.6368L75.5194 28.4912ZM88.0167 14.6993C93.702 11.0757 100.112 8.88332 107.264 8.1305L107.055 6.14149C99.6144 6.92467 92.9045 9.21232 86.9418 13.0127L88.0167 14.6993ZM107.037 8.12846C112.092 8.75254 116.525 10.2772 120.355 12.6865L121.42 10.9935C117.314 8.41084 112.595 6.79945 107.282 6.14353L107.037 8.12846ZM120.355 12.6865C124.193 15.101 127.111 18.1182 129.134 21.7361L130.88 20.7598C128.68 16.8258 125.517 13.571 121.42 10.9935L120.355 12.6865ZM129.033 21.0238C128.256 24.4004 126.581 26.5842 124.065 27.7577C121.491 28.9576 117.88 29.1759 113.113 28.2349L112.726 30.1971C117.686 31.1761 121.787 31.0264 124.91 29.5703C128.089 28.0878 130.095 25.3276 130.982 21.4722L129.033 21.0238ZM113.907 29.0589C112.986 23.2731 110.869 18.5618 107.503 14.9938L106.048 16.3662C109.082 19.5822 111.06 23.8949 111.932 29.3731L113.907 29.0589ZM106.498 14.7192C103.055 15.7123 99.7255 17.3307 96.5092 19.5624L97.6493 21.2056C100.705 19.0853 103.839 17.5677 107.052 16.6408L106.498 14.7192ZM96.5127 19.56C94.9345 20.645 93.7025 21.7096 92.8651 22.7609C92.0296 23.8097 91.5234 24.9273 91.568 26.0864L93.5665 26.0096C93.5471 25.5047 93.7609 24.8463 94.4294 24.0071C95.096 23.1704 96.152 22.235 97.6458 21.208L96.5127 19.56ZM91.5673 26.048C91.5673 26.9591 91.973 27.8265 92.592 28.6274C93.2142 29.4327 94.1104 30.2479 95.2389 31.0777L96.4236 29.4663C95.3761 28.6961 94.6403 28.0073 94.1745 27.4045C93.7055 26.7975 93.5673 26.3529 93.5673 26.048H91.5673ZM95.2546 31.089C97.4724 32.6545 100.197 34.3073 103.42 36.0479L104.37 34.2881C101.194 32.5727 98.5421 30.9615 96.4079 29.455L95.2546 31.089ZM103.427 36.0518C106.676 37.7715 109.957 39.6192 113.271 41.5949L114.295 39.8771C110.954 37.8848 107.643 36.0205 104.363 34.2842L103.427 36.0518ZM113.291 41.6063C116.611 43.4857 119.649 45.7404 122.405 48.3714L123.786 46.9246C120.91 44.1796 117.74 41.8263 114.276 39.8657L113.291 41.6063ZM122.414 48.3796C125.149 50.9287 126.887 53.4495 127.715 55.9322L129.612 55.2998C128.648 52.4065 126.673 49.6153 123.777 46.9164L122.414 48.3796ZM127.675 55.4654C126.696 61.8894 123.312 67.1632 117.431 71.3108L118.584 72.9452C124.863 68.5168 128.583 62.7826 129.652 55.7666L127.675 55.4654ZM117.427 71.3137C111.585 75.4774 104.083 78.0582 94.865 79.0052L95.0695 80.9948C104.54 80.0218 112.397 77.3546 118.588 72.9423L117.427 71.3137ZM95.149 79.0166C89.3759 77.9499 84.0496 75.9437 79.1634 72.9995L78.1311 74.7125C83.2289 77.7843 88.7827 79.8741 94.7855 80.9834L95.149 79.0166ZM79.1763 73.0074C74.346 69.9963 71.1505 66.7308 69.4678 63.2453L67.6667 64.1147C69.568 68.0532 73.0925 71.5717 78.1182 74.7046L79.1763 73.0074ZM69.4559 64.1386C71.4518 60.2715 73.7492 57.5474 76.3129 55.878L75.2216 54.202C72.2813 56.1166 69.7787 59.1525 67.6786 63.2214L69.4559 64.1386ZM76.3041 55.8837C78.7913 54.3009 82.045 54.0328 86.2242 55.3235L86.8143 53.4125C82.2895 52.0152 78.3752 52.1951 75.2304 54.1963L76.3041 55.8837ZM85.5394 54.5676C86.2595 58.1026 87.3456 61.2095 88.811 63.8739L90.5635 62.9101C89.2129 60.4545 88.187 57.5454 87.4991 54.1684L85.5394 54.5676ZM88.811 63.8739C90.2691 66.5249 92.34 69.2792 95.0036 72.1377L96.4669 70.7743C93.8825 68.0008 91.9214 65.3791 90.5635 62.9101L88.811 63.8739ZM95.9437 72.434C99.9908 71.5715 103.417 69.9357 106.187 67.5034L104.867 66.0006C102.389 68.1763 99.2877 69.6765 95.5268 70.478L95.9437 72.434ZM106.178 67.5113C109.032 65.0647 110.559 62.2137 110.559 58.976H108.559C108.559 61.4983 107.398 63.8313 104.876 65.9927L106.178 67.5113Z" fill="white"/>
</g>
<defs>
<filter id="filter0_d" x="0.0478516" y="0.129517" width="143.02" height="94.9313" filterUnits="userSpaceOnUse" color-interpolation-filters="sRGB">
<feFlood flood-opacity="0" result="BackgroundImageFix"/>
<feColorMatrix in="SourceAlpha" type="matrix" values="0 0 0 0 0 0 0 0 0 0 0 0 0 0 0 0 0 0 127 0"/>
<feOffset dx="2" dy="4"/>
<feGaussianBlur stdDeviation="5"/>
<feColorMatrix type="matrix" values="0 0 0 0 0 0 0 0 0 0 0 0 0 0 0 0 0 0 0.45 0"/>
<feBlend mode="normal" in2="BackgroundImageFix" result="effect1_dropShadow"/>
<feBlend mode="normal" in="SourceGraphic" in2="effect1_dropShadow" result="shape"/>
</filter>
</defs>
</svg>
